<?xml version="1.0" encoding="utf-8"?>
<!-- Generator: Adobe Illustrator 22.1.0, SVG Export Plug-In . SVG Version: 6.00 Build 0)  -->
<svg version="1.1" id="Layer_1" xmlns="http://www.w3.org/2000/svg" xmlns:xlink="http://www.w3.org/1999/xlink" x="0px" y="0px"
	 viewBox="0 0 864 864" style="enable-background:new 0 0 864 864;" xml:space="preserve">
<path d="M621.5,527.7c0.1-1.1,0.1-2.2,0.1-3.3c-0.1-1.9,1.7-2.2,2.5-1.9c1.7,0.6,4.5-1.2,5.3,1.7c1,3.8,0.4,7.6,0.6,11.4
	C627,533.1,624.2,530.5,621.5,527.7z M770.1,536.8c0.1-0.1,0.2-0.2,0.4-0.3c-0.1-0.1-0.2-0.1-0.3-0.2
	C770.2,536.5,770.2,536.6,770.1,536.8z M616.4,523.8c1.3,4.3,0.5,8.8,0.7,13.1c0,0.9-1.2,2.4,1.4,2.5c2.2,0,2.6-1.5,2.8-2.6
	c0.3-2,0-4,0.1-6.1c0-0.5,0-0.9,0.1-1.4c-0.8-0.8-1.6-1.6-2.3-2.4C618.2,525.8,617.3,524.8,616.4,523.8z M770.1,538.8
	c0.2,0,0.6,0.1,0.7,0c0.3-0.4,0.2-0.6,0-0.8c-0.3,0.3-0.6,0.5-1,0.8C769.9,538.8,770,538.8,770.1,538.8z M630.2,538
	c0.2-0.1,0.3-0.3,0.4-0.4c-0.2-0.1-0.3-0.3-0.5-0.4C630.1,537.5,630.1,537.7,630.2,538z M624.1,522.5c1.7,0.6,4.5-1.2,5.3,1.7
	c1,3.8,0.4,7.6,0.6,11.4c0.2,0.2,0.5,0.4,0.7,0.6c-0.2-1.5,0.5-2.2,2.5-1.9c2,0.3,2.5-0.4,2.6-1.9c0-2.4-0.4-4.8,1-7.2
	c0.9-1.5,4.2-1.6,3.4-3.8c0.9,0.4,2.2-0.2,2.7,1c1.2,3.1,2.5,6.3,1.4,9.6c-0.2,0.7,0.6,1.2,0.3,2.1c-0.3,0.7,0.7,0.5,1.6,0.5
	c2.1-0.2-0.6-2.8,1.9-2.2c1.2,0.3,0.2,2.4,1.6,2.9c1.2,0.5,3.1,0.1,3.5,2c1.1-1.9-0.9-4.2,2.8-5.1c2.8-0.7,4.7-0.3,4.8,1.9
	c0.1,2.7,3.7,3.9,4.7,6.2c0.1,0.3,1.1,0.2,1.6,0c2.7-1.3,3.3-1,4.2,1.9c0.2-3.7,3.6-3.8,6.6-3.9c5.2-0.2,5.8-0.2,5-4.1
	c-0.7-3.6,2.9-2.9,4.9-3.7c0.9-0.3,2.1,0.3,0.5-1c-1-0.8,1.2-0.8,1.9-1.2c0.2-0.1,0.4-0.3,0.6-0.5c0.1,0.3,0.3,0.5,0.3,0.8
	c0.5,1.6,2.3,1.9,3.9,2.2c2.4,0.5,4.2,3,7.3,1.5c0,0,0.8,0.5,0.8,0.8c0,1.7,1.3,2.8,2.8,4c1.4,1.1,2.9,2.6,2.3,4.7
	c-0.6,2.1,1.7,3.4,3.6,4c1.3,0.4,1,1.3,1.8,1.6c0.1-0.2,0.2-0.4,0.2-0.6c0.2-4,0.7-4.6,5.6-5c1.6-0.2,2.8-1,4.5-1.1
	c2.2-0.2,4-0.4,5.1,1.5c0.7,1.2,2,0.3,3,0.4c3.3,0.4,5.5-1.5,5.6-4c0.1-2.5-0.5-5.1,0.7-7.6c0.3-0.6-1.1-2.1,1.3-1.5
	c1.3,0.3,3.6-1,3.7,1.4c0,0.8-1,2.4,1.5,2.3c2.3-0.1,5,1.2,6.5-1.2c0.2-0.4,0.9-0.7,1.4-0.8c2.4-0.1,5.5-0.8,7.2,0.1
	c2.6,1.3,5.2,1.1,7.9,1.4c0.9,0.1,1.6,1,1.5,1.9c-0.1,0.9-0.2,1.8-0.1,2.8c0,0.1,0,0.1,0,0.2c0.3-0.2,0.6-0.5,0.9-0.7
	c0-0.1,0.1-0.3,0.1-0.5c0.1,0.1,0.2,0.1,0.3,0.2c18.3-15.1,31.8-36.3,37.9-61.6h-56c-10.9,24.3-29.3,37.6-51.9,37.6
	c-36.4,0-58.2-34-58.2-66.9c0-31.8,20.3-65.7,57.9-65.7c27.8,0,45.1,20,52.2,38.8h56c-6.5-36.6-43.9-87.5-107.9-87.5
	c-69.8,0-111.5,58.3-111.5,114.6c0,29.6,11.5,59.8,32.5,81.8c0.1-1.1,0.1-2.2,0.1-3.3C621.6,522.6,623.4,522.3,624.1,522.5z
	 M569.4,295.5v218.3c0.7,0.1,1.5,0.1,2.2,0.2c1.7,0.2,2.5,1.8,2.4,3.4c-0.1,4.6-0.1,9.2,0,13.8c0,0.7-0.8,1.8,1,1.9
	c1,0.1,1.5-0.4,2.2-1c1.1-0.9,2.3-1.3,1.9-2.9c-0.2-0.7-1.4-2.4,1-2.7c2.4-0.3-0.7,1.9,1.4,1.9c1.3-3.2,2.7-6.4,4.1-9.6
	c1.7,2.9,3.4,5.6,3.5,8.7c0,3.1,0,6.2,0,9.8c1.8-1.7,1.4-3.3,1.3-4.6c-0.2-4.6,0.4-9,3.1-13c1-1.6,2.8-3.2,5-3.7
	c2.6-0.5,3.9-1.1,3.5-3.3c-0.1-0.6,0.6-1.3,0.9-2c0.8,0.2,0.5,0.7,0.4,1c-0.7,3,0.7,3.9,4.7,3.7c0.9,0,1.6,0.1,2.3,0.4
	c-14.5-20.1-22.6-45-22.6-70.2c0-57,42.2-115.9,112.8-115.9c37.9,0,63.2,17.1,77.8,31.5c16.4,16.2,28.2,37.9,31.6,57.9l0.1,0.8
	h-58.5l-0.2-0.4c-6.8-18.6-23.8-38.4-51.1-38.4c-36.7,0-56.6,33.2-56.6,64.4c0,32.2,21.3,65.6,56.9,65.6c22.2,0,40.2-13.2,50.9-37.2
	l0.2-0.4h58.5l-0.2,0.8c-6.1,25.8-19.7,47.5-38.2,62.9c2.2,1,4-0.1,5.3-1.7c0.9-1,1.2-1.4,2.3-0.4c1.2,1.1,1.3-1.2,2.6-0.4
	c2.3,1.4,3.9,3.2,3.5,5.2c-0.4,2.1,0.6,2.9,2.8,3.2c1.7,0.2,1.8,0.7,1.7,1.8c-0.9,4.9-0.1,9.9-0.5,14.9c-0.1,1.3,0.3,2.3,2.5,2.3
	c2.4-0.1,1.8-1.3,1.8-2.3c-0.3-5.7-0.3-11.4,0.5-17c0.4-2.6,6.4-6.7,9.6-7c1-0.1,2.1-0.3,3.1-0.5c4.4-0.7,5.9,0,6,3.5
	c0.2,5.8,0.2,11.6,0.1,17.4c-0.1,3,0.2,6,0.6,9c0.1,1.3,1.2,1.8,2.3,2.3c1.2,0.5,2.4,0.3,3.2-0.5c0.8-0.8,1.4-1.2,2.2-0.1
	c0.6,0.8,1.8,0.8,2.9,0.8c2,0,4,0,6.1,0V295.5H569.4z M770.1,537.3c0-0.2,0-0.3,0.1-0.5c-0.3,0.2-0.6,0.5-0.9,0.7
	c-0.1,0.5-0.3,1.1,0.6,1.3c0.3-0.3,0.6-0.5,1-0.8C770.5,537.8,770.1,537.6,770.1,537.3z M630.7,536.3
	C630.7,536.3,630.7,536.3,630.7,536.3c-0.2-0.3-0.5-0.5-0.7-0.7c0,0.5,0.1,1,0.1,1.5c0.2,0.1,0.3,0.3,0.5,0.4
	C630.9,537.2,630.7,536.7,630.7,536.3z M74.8,335.5v180c5.5,1.3,10.2,3.6,13.8,7.3c1.2,1.2,0.9,2.5,0.7,3.7
	c-0.9,6.6-1.8,13.4-0.1,19.8c1,3.6,0.7,7.1,1,10.6h10.9c0.8-1,0.9-2.4,1-3.9c0.1-4.4-0.4-8.9,0.8-13.3c0.5-1.9,2-2.8,3.8-3
	c1.7-0.1,4.2-1.2,5.2,1.5c0.6,1.5,2.9,0.2,4.5,0.8c-0.7-2.4,0.7-4.4,0.2-6.6c-0.1-0.3,0.2-0.8,0.8-0.8c1,0,1.3,0.8,1.2,1.1
	c-0.3,1-0.4,1.9-0.4,2.9c0,3.1,1.9,4.3,5.4,3.1c1.6-0.6,1.8-2.2,0.3-3.2c-1-0.7-0.9-1.5-0.5-1.9c0.5-0.5,1.3-0.4,2.1-0.3l-1-112.3
	L192.9,533c0-2.3,0-4.5-0.1-6.8c-0.2-2.3,0.5-3.4,3.8-3c0.8,0.1,1.6,0,2.5,0c-0.7-1.5-0.8-2.8-0.2-4.1l0,0l0,0c0,0,0,0,0,0
	c2,0.8,4.6-0.5,6.6,1.3c1.5,1.4,1.7,4,5.1,4.1c0.1,0,0.2,1.2,0.2,1.8c0,3.1,0,6.3,0,9.4c0,2.8,2.8,4.3,6,3.4
	c0.4-0.1,0.9-0.7,0.9-0.8c-0.9-1.4-0.6-1.8,1.5-2c2.4-0.2,2.4,0.9,2.5,2.1c0,0.2,0.5,0.4,0.9,0.6c0.1-0.1,0.3-0.2,0.3-0.4
	c0.3-1.3-0.7-3.8,2.2-3.5c3.1,0.4,1,2.8,1.3,4.4c1.2,0.6,4.4-0.9,4,2c0,0.1,2.2,0.6,3.2,0.4c2.3-0.4,2.3,0.5,2.3,1.8
	c-0.1,2.8-0.1,5.5,0,8.3c0,0.7-0.9,2,1.3,2c2.4,0.1,1.5-1.3,1.5-2.1c0.1-6.1,0.1-12.2,0-18.2c0-1.8,0.6-2.2,2.9-2.4
	c4.2-0.4,8.1,0.1,12.2,0.6V335.5h-51L204,473l-83.2-137.5H74.8z M192.9,535.5L126,425.7l0.9,107.7c0.8,0.2,0.6,0.9,0.5,1.4
	c-0.3,1.3,1.3,2.4,1,3.4c-1.1,3.6,2,5,5.1,6.5c2.3,1.1,2.8,2.9,2.8,4.9c0,1.8-1.4,4.2,2.6,5.1c0.6,0.1,0.3,2.3,0.5,3.5
	c0.1,0.9,0.2,1.7,0.3,2.6c0.3,0,0.6,0,0.9-0.1c0-3.3,0.4-6.6-0.1-9.9c-0.5-3.3-0.5-6.5,0.1-9.7c0.1-0.3-0.3-0.7-0.4-1
	c0.2-0.1,0.3-0.2,0.5-0.3c3.3,0.8,6-1.3,9.2-1.1c1.4,0.1,0.5-1,1.1-1.4c1.3-0.8,3.6,0.5,4.9,1.3c5,3.2,1.2,7.4,2.5,11
	c0.2,0.5-0.1,1.1,0.8,1.3c0.4,0.1,1.1,0.1,1.3-0.1c1.1-1-0.7-0.8-0.9-1.2c-0.6-1-0.3-2-0.1-3.1c2,0.4,1.2,1.5,1.4,2.1
	c0.4,1-0.2,2.5,2.4,2.4c1.3-0.1,1,0.8,1,1.4c0.1,1.7-0.1,3.3,0.1,5c0.3,2.2,1.1,2.4,3.3,1.2c1.9-1.1,5.7,0.6,5.9,2.9
	c0.1,1.3,0.4,1.7,2.2,1.7c2.1,0,1.1-1.2,1.5-1.9c0.4-0.8-1.5-3,1.9-2.2c0.1-0.3,0.1-0.5,0.2-0.8c0.3-0.7-0.7-1.9,0.5-2.2
	c1.4-0.3,3.2-0.3,4.6,0c1.1,0.3,1.2,1-0.4,0.5c-0.2-0.1-0.4,0.5-0.2,0.9c1.1,1.6,3.3,2.5,4.9,2.1c1.2-0.3,3.6-1,3.5-3.1
	C191.9,549.5,192.6,542.5,192.9,535.5z M35.5,295.5v260.3c1.8,0.1,3.5-0.2,5.1-1.4c0.7-0.6,1.8-0.4,2.8-0.4c2.9,0,5.7,0,8.6,0
	c6.3,0,7.9-0.8,7.9-5.7c0.1-6.7,1.9-13.4-0.3-20.1c-1.6-4.7,2.2-7.2,5.9-9.9c1.4-1,3.1-1.7,4.1-3.1c0.7-1,1.8-0.5,2.8-0.3
	c0.4,0.1,0.7,0.2,1,0.2V334.1h48.2l0.2,0.3l80.9,133.7l-1.1-134h53.7v198.1c0.6,0.1,1.2,0.1,1.8,0.2c1.8,0.1,1.2,1.3,1.2,2.1
	c0,5.9,0,11.8,0,17.7c0,0.5-0.4,1.1,0.6,1.5c1-3.7,0.4-7.5,0.5-11.2c0-1.5,0.1-1.7,1.6-1.5c2.6,0.3,3.3-0.6,3-2.4
	c-0.2-0.8,0-1.7,0-2.5c0-4.4,0-4.5,5.8-4.5c5.9,0,11.9-0.3,17.8,0.2c1.7,0.1,2.9,0.4,3.8,1.3c1.8,1.9,4.3,3.6,3.6,6.5
	c-0.3,1.3,0.1,2.8-0.1,4.1c-0.3,1.6-0.1,3,1.5,3.5V295.5H35.5z M523.7,335.5h-57.2L434,426.2l-32.3-90.7h-57.8l63.5,141v15.2
	c0.9,0.6,0.9,1.6,0.9,2.5c0.1,2.5-0.1,5-0.1,7.5c0,1.6-0.1,3,3.1,2.5c2.1-0.3,4.4,0.4,6.6,0.4c1,0,2.3,0.7,3.1-0.9
	c0.4-0.8,1.4,0.8,1.9,0.8c2,0.1,4.1,0.4,6-0.1c0.8-0.3,1.6-0.3,2.4-0.3c5.2-0.1,5.6,0.2,5.6,4.1c0,0.9,0.1,1.9,0,2.8
	c-0.4,2.5,0.2,4.2,4.3,3.8c0-9.1,0-18.4,0-27.7c0-15.1,1.2-30.1,0.7-45.2c0-1-0.2-1.9,1.8-2c1.2-0.1,1.7-1.3,1.8-1.9
	c0.6-3.2,3.8-3.2,6.7-3.4c1.9-0.1,2.2-0.6,2-1.8c-0.3-1.9-0.8-4.2-0.4-5.6c0.9-3,0.1-5.9,0.7-8.8c0.7-3.4-0.1-6.9,0.2-10.3
	c0.2-2.1-1.3-4.4,0.9-7.2c0,2.2,0,3.6,0,5c-0.2,6.3,0.1,12.6,0.3,19c0.1,2.8-0.4,5.7,0.4,8.6c0.5,2,2.8,1,4.1,1.6
	c0.9,0.4,2.2,0.2,3.2,0.9c1,0.8,0.9,1.8,0.5,2.6c-0.6,1.2-1.5-0.2-2.3-0.1c-2.5,0.1-4.7-1.5-8.2-0.7c4.3,0.6,7.6,2,11.5,1.6
	c2.1-0.2,3.5,1,3.5,3.1c0,5.7,0,11.4,0,17L523.7,335.5z M302.4,295.5v238.7c0.4-0.7,1-1.4,1.8-2c1.5-1.1,3.8-1.9,5.9-0.6
	c1.3,0.8,2.9-0.8,4.4,1c0.9,1.1,2.9,1.9,2.6,3.6c-0.2,1.2,0.4,1.6,2,1.5c2-0.1,3.9-0.2,5.9-0.2c2.7,0.1,3.3,0.8,2.9,2.6
	c-0.1,0.5-0.3,1.3,0.4,1.5c3.9,1.2,2.1,3.8,2.4,5.9c0.3,1.9,1.4,3.7,0.5,6.1c2.2-0.9,1.3-1.9,1.6-2.5c2-4.6,2-9.3,2.3-14.1
	c0.3-4.9,5.1-6.7,10.1-4.4c0.2,0.1,0.6,0.2,0.6,0.2c-1.3,3,3.8,3.8,3.6,6.5c-0.3,3.5-0.1,7,0.5,10.6c0.1-3.6,4.5-6.2,3.8-10
	c-0.2-0.8,1-1.8,1.5-2.7c0.2,1.2,2.7,1.7,1.8,3c-0.9,1.3,0.4,1.7,0.8,2.7c0.9-1.6,1.2-3.6,4.5-2.4c0.6,0.2,1-0.4,1-1.2
	c0-4.5,0.3-9.1,0.3-13.6c0.1-7.3,0.1-14.7,0.1-22c0-1.4,0-2.7,2.3-3.1c1-0.2,0.5-0.9,0.5-1.3c0.1-2,0.1-4.1,0-6.1
	c-0.1-1.6,0.6-2.2,2.8-2.3c12.2-0.6,24.3,0.7,36.4,0.6c0.1,0,0.2,0,0.3,0v-14.6l-64.3-142.6h60.8l31.3,88.1l31.6-88.1h60.2
	l-57.3,128.3c0,11.3,0,22.6,0,33.9c0,1.5,0.1,2.9,0.7,4.3c0.1,0.3,0,0.7,0.1,0.8c4.9,1.3,2.6,4.4,2.6,6.7c0.3,9.3,0.1,18.6,0.1,27.9
	c0,1.1-0.2,2.2,1.3,3c0.9,0.5,1,1.2,0.9,2c0,0.3,0,0.6,0,0.8c0,2.5,0.1,5,0,7.5c-0.1,2,2.3,3.9,0.1,5.9c-0.3,0.2,0,0.9,0.1,1.5
	c2.6-0.7,2.4-2.7,2.6-3.8c0.5-3.1,0.1-6.3,0.4-9.3c0.6-5.8,0.3-11.5,0.5-17.3c0-1.3,1-1.2,2.1-1.2c3.3,0,6.7,0.1,10,0
	c2-0.1,2.3,0.6,2.3,1.9c-0.1,4.6,0,9.2,0,13.8c0,0.6-0.2,1.5,0.2,1.9c3.1,2.4,1.7,5.4,2,7.9c5.4,1.5,4.2-1.5,4.3-3.7
	c0-1.4,0-2.8,0-4.1c0-1.3-0.6-2.7,2.1-3c1.2-0.2,0.8-1.4,0.8-2.2c-0.1-5.6-0.7-11.2-0.2-16.7c0.3-3.2-0.5-7.5,4.5-10.1
	c1.9-1,2.5-3.6,4.6-4.8c6.6-3.8,13.9-1.8,17.2,3.4c0.7,1.1,1.3,0.7,2,0.8c1.2,0.2,1.4-0.4,1.3-1.1c-0.3-2.2,0-4.3-0.5-6.5
	c-0.5-2.5-0.6-5.3,0.2-7.9c0.2-0.5,0.3-1.1,0.2-1.6c-0.7-3.3-0.7-3.3,3.4-3.3c5.1,0,10.2-0.9,15.3-0.6c1.6,0.1,3.1-0.4,2.3,1.9
	c-0.8,2.3,0.6,4.8,0.6,7.3c-0.1,13.2-0.1,26.4,0,39.5c0,1.2-1.5,3.4,1.1,3.5c1,0.1,3.3-2,3.2-4.2c-0.2-4.6,0-9.2-0.1-13.8
	c0-1.4-0.1-2.6,2.5-2.2c1.4,0.2,2-0.3,1.8-1.4c0-0.1,0-0.2,0-0.3c0.2-1.8-1-4.8,0.5-5.2c0.5-0.1,1.1-0.2,1.7-0.3V295.5H302.4z"/>
</svg>
